<svg width="24" height="15" fill="none" xmlns="http://www.w3.org/2000/svg"><path fill-rule="evenodd" clip-rule="evenodd" d="M22.934 11.837v-.272h-.071l-.082.186-.081-.186h-.071v.272h.05v-.205l.076.177h.053l.076-.177v.205h.05Zm-.45 0v-.226h.091v-.045h-.231v.045h.09v.226h.05Z" fill="#F79410"/><path fill-rule="evenodd" clip-rule="evenodd" d="M14.888 13.001H8.764V1.995h6.124V13Z" fill="#FF5F00"/><path fill-rule="evenodd" clip-rule="evenodd" d="M9.151 7.5a6.989 6.989 0 0 1 2.674-5.504A7 7 0 0 0 .5 7.5a7 7 0 0 0 11.325 5.504A6.988 6.988 0 0 1 9.15 7.5Z" fill="#EB001B"/><path fill-rule="evenodd" clip-rule="evenodd" d="M23.15 7.5a7 7 0 0 1-11.326 5.503A6.987 6.987 0 0 0 14.498 7.5a6.987 6.987 0 0 0-2.674-5.504A7 7 0 0 1 23.15 7.5" fill="#F79410"/></svg>