<svg width="24" height="15" fill="none" xmlns="http://www.w3.org/2000/svg"><path fill-rule="evenodd" clip-rule="evenodd" d="M14.888 13.002H8.764V1.995h6.124v11.007Z" fill="#6C6BBD"/><path fill-rule="evenodd" clip-rule="evenodd" d="M9.151 7.5a6.989 6.989 0 0 1 2.674-5.503A7 7 0 0 0 .5 7.5a7 7 0 0 0 11.325 5.504A6.989 6.989 0 0 1 9.15 7.5Z" fill="#EB001B"/><path fill-rule="evenodd" clip-rule="evenodd" d="M23.15 7.5a7 7 0 0 1-11.326 5.504A6.987 6.987 0 0 0 14.498 7.5a6.987 6.987 0 0 0-2.674-5.503A7 7 0 0 1 23.15 7.5" fill="#0099DF"/></svg>