<svg width="0" height="0" class="hidden">
  <symbol fill="" xmlns="http://www.w3.org/2000/svg" viewBox="0 0 12 16" id="stars">
    <path fill-rule="evenodd" clip-rule="evenodd"
      d="M6.698 3.15a.755.755 0 0 0-1.396 0h1.396Zm-1.396 0L4.147 5.91l-2.955.256c-.673.059-.93.894-.432 1.329l2.245 1.964-.673 2.923c-.148.642.546 1.175 1.13.82L6 11.656l2.538 1.545c.585.358 1.278-.178 1.13-.818l-.673-2.924 2.245-1.964c.498-.435.24-1.27-.432-1.328L7.853 5.91 6.698 3.15"
      fill=""></path>
  </symbol>
  <symbol fill="" xmlns="http://www.w3.org/2000/svg" viewBox="0 0 24 24" id="search">
    <g fill-rule="evenodd" clip-rule="evenodd" fill="">
      <path
        d="M9.934 3.703a6.313 6.313 0 1 0 0 12.625 6.313 6.313 0 0 0 0-12.625Zm-7.996 6.312a7.996 7.996 0 1 1 15.992 0 7.996 7.996 0 0 1-15.992 0Z">
      </path>
      <path
        d="M13.96 14.899a.842.842 0 0 1 1.19-.016l6.046 5.892a.842.842 0 1 1-1.175 1.206l-6.045-5.892a.842.842 0 0 1-.016-1.19Z">
      </path>
    </g>
  </symbol>
  <symbol fill="" xmlns="http://www.w3.org/2000/svg" viewBox="0 0 28 29" id="profile">
    <path fill-rule="evenodd" clip-rule="evenodd"
      d="M18.52 9.289c0 2.77-2.084 4.918-4.514 4.918s-4.515-2.148-4.515-4.895C9.48 6.601 11.588 4.5 14.006 4.5c2.418 0 4.515 2.054 4.515 4.789ZM4.5 22.998c0 .986.643 1.502 2.442 1.502h14.116c1.799 0 2.442-.516 2.442-1.502 0-2.864-3.657-6.808-9.494-6.808-5.849 0-9.506 3.944-9.506 6.808Z"
      fill=""></path>
  </symbol>
  <symbol fill="" xmlns="http://www.w3.org/2000/svg" viewBox="0 0 20 20" id="pen">
    <path fill-rule="evenodd" clip-rule="evenodd"
      d="m13.159 3.06 3.781 3.782L6.727 17.055l-3.992.798a.5.5 0 0 1-.588-.588l.798-3.992L13.16 3.06ZM4.177 13.932l8.982-8.981 1.89 1.89-8.981 8.982-2.364.473.473-2.364Z"
      fill=""></path>
    <path fill-rule="evenodd" clip-rule="evenodd"
      d="m15.995 7.787-3.782-3.781 1.418-1.419a2.005 2.005 0 0 1 2.837 0l.945.946a2.006 2.006 0 0 1 0 2.836l-1.418 1.418Zm.473-2.363a.668.668 0 0 0 0-.946l-.946-.945a.668.668 0 0 0-.945 0l-.473.473 1.89 1.89.474-.472Z"
      fill=""></path>
  </symbol>
  <symbol fill="" xmlns="http://www.w3.org/2000/svg" viewBox="0 0 20 20" id="like">
    <path fill-rule="evenodd" clip-rule="evenodd"
      d="M3.034 4.059c-.768.693-1.267 1.774-1.039 3.37.228 1.599 1.27 3.256 2.81 4.919 1.454 1.57 3.305 3.096 5.195 4.526 1.89-1.43 3.741-2.956 5.196-4.526 1.54-1.663 2.58-3.32 2.809-4.919.228-1.596-.271-2.677-1.04-3.37C16.178 3.346 15.056 3 14 3c-1.868 0-2.908 1.085-3.482 1.684-.06.063-.115.12-.165.17a.5.5 0 0 1-.707 0 11.53 11.53 0 0 1-.164-.17C8.908 4.084 7.868 3 6 3c-1.055 0-2.177.346-2.966 1.059Zm-.67-.743C3.374 2.404 4.752 2 6 2c2.071 0 3.345 1.113 4 1.779C10.655 3.113 11.929 2 14 2c1.248 0 2.626.404 3.636 1.316 1.031.932 1.63 2.351 1.359 4.255-.272 1.901-1.48 3.744-3.066 5.456-1.594 1.722-3.623 3.368-5.629 4.873a.5.5 0 0 1-.6 0c-2.006-1.505-4.036-3.151-5.63-4.873-1.585-1.712-2.793-3.555-3.065-5.456-.272-1.904.328-3.323 1.359-4.255Z"
      fill=""></path>
  </symbol>
  <symbol fill="" xmlns="http://www.w3.org/2000/svg" viewBox="0 0 20 20" id="delete">
    <path fill-rule="evenodd" clip-rule="evenodd" d="M2.5 5a.5.5 0 0 1 .5-.5h14a.5.5 0 0 1 0 1H3a.5.5 0 0 1-.5-.5Z"
      fill=""></path>
    <path fill-rule="evenodd" clip-rule="evenodd"
      d="M3.458 4.5h13.048l-.865 11.193A2.5 2.5 0 0 1 13.15 18H6.846a2.5 2.5 0 0 1-2.492-2.3L3.458 4.5Zm1.084 1 .81 10.12A1.5 1.5 0 0 0 6.845 17h6.303a1.5 1.5 0 0 0 1.495-1.384L15.426 5.5H4.542Z"
      fill=""></path>
    <path fill-rule="evenodd" clip-rule="evenodd"
      d="M13 5.5H7V3.469C7 2.658 7.658 2 8.469 2h3.062C12.342 2 13 2.658 13 3.469V5.5ZM8.469 3A.469.469 0 0 0 8 3.469V4.5h4V3.469A.469.469 0 0 0 11.531 3H8.47Z"
      fill=""></path>
  </symbol>
  <symbol fill="none" xmlns="http://www.w3.org/2000/svg" viewBox="0 0 20 20" id="company">
    <circle cx="10" cy="10" r="7.5" stroke="#A0A0A4"></circle>
    <path
      d="M9.889 7.587a.907.907 0 0 1-.64-.23.755.755 0 0 1-.249-.57.72.72 0 0 1 .249-.567c.166-.147.38-.22.64-.22.263 0 .477.073.64.22a.72.72 0 0 1 .248.566.74.74 0 0 1-.249.576c-.162.15-.376.225-.64.225Zm.761 5.79H9.107v-5h1.543v5Z"
      fill="#A0A0A4"></path>
  </symbol>
  <symbol fill="" xmlns="http://www.w3.org/2000/svg" viewBox="0 0 13 11" id="checked">
    <path fill-rule="evenodd" clip-rule="evenodd"
      d="m12.735 2.18-8.148 8.804-4.33-4.816 1.488-1.337 2.863 3.185 6.66-7.195 1.467 1.358Z" fill=""></path>
  </symbol>
  <symbol fill="" xmlns="http://www.w3.org/2000/svg" viewBox="0 0 28 29" id="basket">
    <path fill-rule="evenodd" clip-rule="evenodd"
      d="M11.221 17.466a1 1 0 0 0 1.1.653l12.766-2.036a1 1 0 0 0 .824-.792l1.354-6.792a1 1 0 0 0-.964-1.196l-17.36-.28a1 1 0 0 0-.958 1.335l3.238 9.108ZM11.826 25.36a2.326 2.326 0 1 0 0-4.653 2.326 2.326 0 0 0 0 4.652ZM23.457 25.36a2.326 2.326 0 1 0 0-4.653 2.326 2.326 0 0 0 0 4.652ZM5 4c1.933 0 3.5-.224 3.5-.5S6.933 3 5 3s-3.5.224-3.5.5S3.067 4 5 4Z"
      fill=""></path>
    <path fill-rule="evenodd" clip-rule="evenodd"
      d="M2.454 2.651C3.118 2.557 4.017 2.5 5 2.5c.983 0 1.882.057 2.546.151.327.047.619.106.839.18.107.037.227.086.33.158.085.06.285.224.285.511 0 .287-.2.451-.285.51a1.317 1.317 0 0 1-.33.158c-.22.075-.512.134-.84.18C6.883 4.444 5.984 4.5 5 4.5c-.983 0-1.882-.057-2.546-.151a4.934 4.934 0 0 1-.839-.18 1.317 1.317 0 0 1-.33-.158C1.2 3.95 1 3.787 1 3.5c0-.287.2-.451.285-.51.103-.073.223-.122.33-.158.22-.075.512-.134.84-.18Z"
      fill=""></path>
  </symbol>
  <symbol fill="" xmlns="http://www.w3.org/2000/svg" viewBox="0 0 20 20" id="arrow">
    <path
      d="M17.342 14.912a.97.97 0 0 1-1.378.014l-5.822-5.751a.2.2 0 0 0-.283.001l-5.706 5.74A1.009 1.009 0 0 1 2.714 13.5l6.57-6.752a1 1 0 0 1 1.433 0l6.625 6.81a.97.97 0 0 1 0 1.353Z"
      fill=""></path>
  </symbol>
  <symbol fill="" xmlns="http://www.w3.org/2000/svg" viewBox="0 0 12 12" id="close-form">
    <path fill-rule="evenodd" clip-rule="evenodd"
      d="m7.426 6 4.279-4.278A1.008 1.008 0 1 0 10.278.295L6 4.574 1.721.295A1.008 1.008 0 1 0 .295 1.722L4.574 6 .295 10.278a1.008 1.008 0 0 0 1.426 1.427L6 7.426l4.278 4.279a1.008 1.008 0 1 0 1.427-1.427L7.426 6Z"
      fill=""></path>
  </symbol>
</svg>